<svg xmlns="http://www.w3.org/2000/svg" viewBox="0 0 512 512" role="img" aria-labelledby="title desc">
  <title id="title">AgentPack icon</title>
  <desc id="desc">Layered context cards converging into a focused path.</desc>
  <rect width="512" height="512" rx="96" fill="#0F172A"/>
  <path d="M128 142h176c44 0 80 36 80 80v148H208c-44 0-80-36-80-80V142Z" fill="#1F6FEB"/>
  <path d="M178 112h176c44 0 80 36 80 80v148H258c-44 0-80-36-80-80V112Z" fill="#22C55E"/>
  <path d="M154 196h204c20 0 36 16 36 36v104H190c-20 0-36-16-36-36V196Z" fill="#F8FAFC"/>
  <path d="M206 246h152" stroke="#0F172A" stroke-width="24" stroke-linecap="round"/>
  <path d="M206 296h104" stroke="#0F172A" stroke-width="24" stroke-linecap="round"/>
</svg>
